<svg width="76" height="93" viewBox="0 0 76 93" fill="none" xmlns="http://www.w3.org/2000/svg">
<path d="M32.9937 60.5662H42.4204V48.9412H54.2038V39.6413H42.4204V28.0163H32.9937V39.6413H21.2102V48.9412H32.9937V60.5662ZM37.707 93C26.7092 90.2875 17.6752 83.9906 10.6051 74.1094C3.53506 64.2281 3.05176e-05 53.3975 3.05176e-05 41.6175V13.95L37.707 0L75.414 13.95V41.6175C75.414 53.3975 71.879 64.2281 64.8089 74.1094C57.7389 83.9906 48.7049 90.2875 37.707 93ZM37.707 85.7925C46.741 82.8475 54.1057 77.2869 59.801 69.1106C65.4963 60.9344 68.344 51.77 68.344 41.6175V18.8325L37.707 7.44L7.07009 18.8325V41.6175C7.07009 51.77 9.91776 60.9344 15.6131 69.1106C21.3084 77.2869 28.6731 82.8475 37.707 85.7925Z" fill="#ECECEC"/>
</svg>
