<svg width="73" height="96" viewBox="0 0 73 96" fill="none" xmlns="http://www.w3.org/2000/svg">
<path d="M25.6641 53.4857L29.7703 40.3429L18.9344 31.8857H32.1656L36.5 18.2857L40.7203 31.8857H54.0656L43.2297 40.3429L47.2219 53.4857L36.5 45.3714L25.6641 53.4857ZM9.58125 96V61.2571C6.15938 57.6762 3.70703 53.7524 2.22422 49.4857C0.741406 45.219 0 40.9143 0 36.5714C0 26.2095 3.49792 17.5238 10.4938 10.5143C17.4896 3.50476 26.1583 0 36.5 0C46.8417 0 55.5104 3.50476 62.5063 10.5143C69.5021 17.5238 73 26.2095 73 36.5714C73 40.9143 72.2586 45.219 70.7758 49.4857C69.293 53.7524 66.8406 57.6762 63.4188 61.2571V96L36.5 86.9714L9.58125 96ZM36.5 66.2857C44.7885 66.2857 51.8034 63.4095 57.5445 57.6571C63.2857 51.9048 66.1562 44.8762 66.1562 36.5714C66.1562 28.2667 63.2857 21.2381 57.5445 15.4857C51.8034 9.73333 44.7885 6.85714 36.5 6.85714C28.2115 6.85714 21.1966 9.73333 15.4555 15.4857C9.71432 21.2381 6.84375 28.2667 6.84375 36.5714C6.84375 44.8762 9.71432 51.9048 15.4555 57.6571C21.1966 63.4095 28.2115 66.2857 36.5 66.2857ZM16.425 86.4L36.5 80.1143L56.575 86.4V66.8571C53.5333 69.0667 50.2635 70.6667 46.7656 71.6571C43.2677 72.6476 39.8458 73.1429 36.5 73.1429C33.1542 73.1429 29.7323 72.6476 26.2344 71.6571C22.7365 70.6667 19.4667 69.0667 16.425 66.8571V86.4Z" fill="#ECECEC"/>
</svg>
