<svg width="76" height="93" viewBox="0 0 76 93" fill="none" xmlns="http://www.w3.org/2000/svg">
<path d="M37.7176 45.3375C39.9887 45.3375 41.9295 44.5397 43.5399 42.944C45.1503 41.3485 45.9555 39.4303 45.9555 37.1897C45.9555 34.9491 45.1468 33.0344 43.5294 31.4456C41.9121 29.8569 39.9678 29.0625 37.6966 29.0625C35.4254 29.0625 33.4847 29.8603 31.8743 31.456C30.2639 33.0515 29.4587 34.9697 29.4587 37.2103C29.4587 39.4509 30.2674 41.3656 31.8847 42.9544C33.5021 44.5431 35.4463 45.3375 37.7176 45.3375ZM37.7071 83.8163C48.155 74.4388 55.8732 65.9331 60.8615 58.2994C65.8498 50.6656 68.344 43.9425 68.344 38.13C68.344 29.0013 65.3867 21.5266 59.472 15.706C53.5574 9.88532 46.3025 6.975 37.7071 6.975C29.1117 6.975 21.8567 9.88532 15.9421 15.706C10.0275 21.5266 7.07012 29.0013 7.07012 38.13C7.07012 43.9425 9.6232 50.6656 14.7294 58.2994C19.8355 65.9331 27.4948 74.4388 37.7071 83.8163ZM37.7071 93C25.0595 82.3825 15.6131 72.5206 9.3679 63.4144C3.12267 54.3081 6.10352e-05 45.88 6.10352e-05 38.13C6.10352e-05 26.505 3.7904 17.2437 11.3711 10.3463C18.9518 3.44875 27.7304 0 37.7071 0C47.6837 0 56.4624 3.44875 64.0431 10.3463C71.6237 17.2437 75.4141 26.505 75.4141 38.13C75.4141 45.88 72.2915 54.3081 66.0462 63.4144C59.801 72.5206 50.3546 82.3825 37.7071 93Z" fill="#ECECEC"/>
</svg>
