<svg width="77" height="93" viewBox="0 0 77 93" fill="none" xmlns="http://www.w3.org/2000/svg">
<path d="M24.7248 93V30.4575C17.2681 28.9075 11.2831 25.5944 6.76988 20.5181C2.25663 15.4419 0 9.5325 0 2.79H7.06422C7.06422 8.835 9.43858 13.9112 14.1873 18.0187C18.936 22.1262 24.7248 24.18 31.5535 24.18H43.3272C46.3099 24.18 48.5076 24.4319 49.9205 24.9356C51.3333 25.4394 53.1386 26.6213 55.3364 28.4813L77 48.4762L71.9373 53.475L50.156 33.2475V93H43.0917V63.3563H31.789V93H24.7248ZM37.4498 16.9725C35.0888 16.9725 33.0645 16.1425 31.3769 14.4824C29.6893 12.8223 28.8456 10.8267 28.8456 8.49555C28.8456 6.16435 29.6862 4.16563 31.3675 2.49938C33.0489 0.833125 35.07 0 37.431 0C39.792 0 41.8163 0.830023 43.5038 2.49007C45.1914 4.1502 46.0352 6.14583 46.0352 8.47695C46.0352 10.8081 45.1945 12.8069 43.5132 14.4731C41.8319 16.1394 39.8107 16.9725 37.4498 16.9725Z" fill="#ECECEC"/>
</svg>
