<svg width="152" height="76" viewBox="0 0 152 76" fill="none" xmlns="http://www.w3.org/2000/svg">
<path d="M0 76V67.6083C0 63.5374 2.19028 60.2238 6.57083 57.6675C10.9514 55.1114 16.6976 53.8333 23.8095 53.8333C25.0936 53.8333 26.3284 53.8597 27.5137 53.9125C28.699 53.9653 29.8722 54.0789 31.0333 54.2532C30.1889 56.0844 29.5556 57.9403 29.1333 59.821C28.7111 61.7017 28.5 63.6641 28.5 65.7083V76H0ZM38 76V65.7083C38 62.3306 38.9236 59.2431 40.7708 56.4458C42.6181 53.6486 45.2306 51.1944 48.6083 49.0833C51.9861 46.9722 56.0236 45.3889 60.7208 44.3333C65.4181 43.2778 70.5111 42.75 76 42.75C81.5944 42.75 86.7403 43.2778 91.4375 44.3333C96.1347 45.3889 100.172 46.9722 103.55 49.0833C106.928 51.1944 109.514 53.6486 111.308 56.4458C113.103 59.2431 114 62.3306 114 65.7083V76H38ZM123.5 76V65.7083C123.5 63.6119 123.315 61.6364 122.946 59.7818C122.576 57.9273 121.969 56.0884 121.125 54.2651C122.286 54.0828 123.456 53.9653 124.635 53.9125C125.815 53.8597 127.02 53.8333 128.25 53.8333C135.375 53.8333 141.115 55.0878 145.469 57.5966C149.823 60.1054 152 63.4427 152 67.6083V76H123.5ZM47.5 66.5H104.5V65.55C104.5 61.6444 101.835 58.4514 96.5042 55.9708C91.1736 53.4903 84.3389 52.25 76 52.25C67.6611 52.25 60.8264 53.4903 55.4958 55.9708C50.1653 58.4514 47.5 61.6972 47.5 65.7083V66.5ZM23.6814 49.0833C20.666 49.0833 18.0764 47.9981 15.9125 45.8277C13.7486 43.6571 12.6667 41.0479 12.6667 38C12.6667 34.9389 13.7519 32.3264 15.9223 30.1625C18.0929 27.9986 20.7021 26.9167 23.75 26.9167C26.8111 26.9167 29.4236 27.9986 31.5875 30.1625C33.7514 32.3264 34.8333 34.9617 34.8333 38.0686C34.8333 41.084 33.7514 43.6736 31.5875 45.8375C29.4236 48.0014 26.7883 49.0833 23.6814 49.0833ZM128.181 49.0833C125.166 49.0833 122.576 47.9981 120.412 45.8277C118.249 43.6571 117.167 41.0479 117.167 38C117.167 34.9389 118.252 32.3264 120.422 30.1625C122.593 27.9986 125.202 26.9167 128.25 26.9167C131.311 26.9167 133.924 27.9986 136.087 30.1625C138.251 32.3264 139.333 34.9617 139.333 38.0686C139.333 41.084 138.251 43.6736 136.087 45.8375C133.924 48.0014 131.288 49.0833 128.181 49.0833ZM76 38C70.7222 38 66.2361 36.1528 62.5417 32.4583C58.8472 28.7639 57 24.2778 57 19C57 13.6167 58.8472 9.10417 62.5417 5.4625C66.2361 1.82083 70.7222 0 76 0C81.3833 0 85.8958 1.82083 89.5375 5.4625C93.1792 9.10417 95 13.6167 95 19C95 24.2778 93.1792 28.7639 89.5375 32.4583C85.8958 36.1528 81.3833 38 76 38ZM76.0556 28.5C78.763 28.5 81.0139 27.5842 82.8083 25.7528C84.6028 23.9213 85.5 21.6518 85.5 18.9444C85.5 16.237 84.5949 13.9861 82.7847 12.1917C80.9746 10.3972 78.7315 9.5 76.0556 9.5C73.3796 9.5 71.1181 10.4051 69.2708 12.2153C67.4236 14.0254 66.5 16.2685 66.5 18.9444C66.5 21.6204 67.4157 23.8819 69.2472 25.7292C71.0787 27.5764 73.3482 28.5 76.0556 28.5Z" fill="#ECECEC"/>
</svg>
