<svg width="153" height="93" viewBox="0 0 153 93" fill="none" xmlns="http://www.w3.org/2000/svg">
<path d="M33.5031 93C28.2251 93 23.7455 91.224 20.0643 87.6719C16.3832 84.1198 14.5426 79.8065 14.5426 74.7321H0.738312V11.625C0.738312 8.42813 1.92105 5.69138 4.28653 3.41476C6.65178 1.13826 9.49529 0 12.8171 0H112.208L152.585 38.8607V74.7321H138.781C138.781 79.8065 136.934 84.1198 133.239 87.6719C129.544 91.224 125.058 93 119.78 93C114.502 93 110.022 91.224 106.341 87.6719C102.66 84.1198 100.819 79.8065 100.819 74.7321H52.5044C52.5044 79.825 50.657 84.1429 46.9623 87.6857C43.2677 91.2286 38.7813 93 33.5031 93ZM97.3683 33.2143H130.844L106.686 9.96429H97.3683V33.2143ZM54.2299 33.2143H87.0151V9.96429H54.2299V33.2143ZM11.0915 33.2143H43.8767V9.96429H11.0915V33.2143ZM33.4992 84.6964C36.3913 84.6964 38.8439 83.7355 40.857 81.8136C42.8701 79.8917 43.8767 77.539 43.8767 74.7556C43.8767 71.9721 42.8783 69.6116 40.8813 67.6741C38.8844 65.7366 36.4399 64.7679 33.5478 64.7679C30.6557 64.7679 28.2031 65.7288 26.19 67.6507C24.1768 69.5726 23.1703 71.9253 23.1703 74.7087C23.1703 77.4922 24.1687 79.8527 26.1656 81.7902C28.1625 83.7277 30.607 84.6964 33.4992 84.6964ZM119.776 84.6964C122.668 84.6964 125.121 83.7355 127.134 81.8136C129.147 79.8917 130.153 77.539 130.153 74.7556C130.153 71.9721 129.155 69.6116 127.158 67.6741C125.161 65.7366 122.717 64.7679 119.825 64.7679C116.932 64.7679 114.48 65.7288 112.467 67.6507C110.454 69.5726 109.447 71.9253 109.447 74.7087C109.447 77.4922 110.446 79.8527 112.442 81.7902C114.439 83.7277 116.884 84.6964 119.776 84.6964ZM11.0915 64.7679H17.476C19.4316 61.8893 21.8761 59.7857 24.8095 58.4571C27.7429 57.1286 30.6476 56.4643 33.5235 56.4643C36.3994 56.4643 39.304 57.1286 42.2374 58.4571C45.1709 59.7857 47.6154 61.8893 49.571 64.7679H103.753C105.708 61.8893 108.153 59.7857 111.086 58.4571C114.02 57.1286 116.924 56.4643 119.8 56.4643C122.676 56.4643 125.581 57.1286 128.514 58.4571C131.448 59.7857 133.892 61.8893 135.848 64.7679H142.232V43.1786H11.0915V64.7679Z" fill="#ECECEC"/>
</svg>
