<svg width="708" height="700" fill="none" xmlns="http://www.w3.org/2000/svg"><g clip-path="url(#a)"><path fill="#D9D9D9" d="M202 50h470v650H202z"/><path fill-rule="evenodd" clip-rule="evenodd" d="M378.166 700H39.076C17.49 700 0 682.698 0 661.363V38.634C0 17.294 17.491 0 39.076 0h629.851C690.506 0 708 17.294 708 38.634v622.729C708 682.701 690.503 700 668.927 700H488.51V428.921h92.028l13.78-105.644H488.51V255.83c0-30.586 8.59-51.43 52.952-51.43l56.581-.024v-94.489c-9.785-1.288-43.372-4.164-82.449-4.164-81.578 0-137.428 49.233-137.428 139.645v77.909h-92.265v105.644h92.265V700Z" fill="#4460A0"/></g><defs><clipPath id="a"><path fill="#fff" d="M0 0h708v700H0z"/></clipPath></defs></svg>