<svg width="34" height="40" viewBox="0 0 34 40" fill="none" xmlns="http://www.w3.org/2000/svg">
<path d="M4.72813 40C4.26771 40 3.86042 39.8684 3.50625 39.6053C3.15208 39.3421 2.975 39 2.975 38.5789V34.1579C1.94792 33.5965 1.19531 32.7895 0.717188 31.7368C0.239063 30.6842 0 29.5614 0 28.3684V7.47368C0 4.87719 1.35469 2.98246 4.06406 1.78947C6.77344 0.596491 11.1031 0 17.0531 0C22.9323 0 27.2266 0.596491 29.9359 1.78947C32.6453 2.98246 34 4.87719 34 7.47368V28.3684C34 29.5614 33.7609 30.6842 33.2828 31.7368C32.8047 32.7895 32.0521 33.5965 31.025 34.1579V38.5789C31.025 39 30.8479 39.3421 30.4938 39.6053C30.1396 39.8684 29.7323 40 29.2719 40H28.2625C27.7667 40 27.3417 39.8684 26.9875 39.6053C26.6333 39.3421 26.4563 39 26.4563 38.5789V35.6842H7.54375V38.5789C7.54375 39 7.36667 39.3421 7.0125 39.6053C6.65833 39.8684 6.23333 40 5.7375 40H4.72813ZM17.0531 6.10526H30.8125H3.1875H17.0531ZM26.4563 21.5263H3.1875H30.8125H26.4563ZM3.1875 18.3684H30.8125V9.26316H3.1875V18.3684ZM8.81875 29.8947C9.63333 29.8947 10.324 29.614 10.8906 29.0526C11.4573 28.4912 11.7406 27.807 11.7406 27C11.7406 26.193 11.4573 25.5088 10.8906 24.9474C10.324 24.386 9.63333 24.1053 8.81875 24.1053C8.00417 24.1053 7.31354 24.386 6.74688 24.9474C6.18021 25.5088 5.89688 26.193 5.89688 27C5.89688 27.807 6.18021 28.4912 6.74688 29.0526C7.31354 29.614 8.00417 29.8947 8.81875 29.8947ZM25.1813 29.8947C25.9958 29.8947 26.6865 29.614 27.2531 29.0526C27.8198 28.4912 28.1031 27.807 28.1031 27C28.1031 26.193 27.8198 25.5088 27.2531 24.9474C26.6865 24.386 25.9958 24.1053 25.1813 24.1053C24.3667 24.1053 23.676 24.386 23.1094 24.9474C22.5427 25.5088 22.2594 26.193 22.2594 27C22.2594 27.807 22.5427 28.4912 23.1094 29.0526C23.676 29.614 24.3667 29.8947 25.1813 29.8947ZM3.1875 6.10526H30.8125C29.9625 5.19298 28.3333 4.47368 25.925 3.94737C23.5167 3.42105 20.5594 3.15789 17.0531 3.15789C12.874 3.15789 9.66875 3.39474 7.4375 3.86842C5.20625 4.34211 3.78958 5.08772 3.1875 6.10526ZM7.54375 32.5263H26.4563C27.6958 32.5263 28.7318 32.0526 29.5641 31.1053C30.3964 30.1579 30.8125 29.0702 30.8125 27.8421V21.5263H3.1875V27.8421C3.1875 29.0702 3.60365 30.1579 4.43594 31.1053C5.26823 32.0526 6.30417 32.5263 7.54375 32.5263Z" fill="#FAFAFA"/>
</svg>
