<svg width="700" height="700" fill="none" xmlns="http://www.w3.org/2000/svg"><g clip-path="url(#a)"><path d="M550 0H150C67.157 0 0 67.157 0 150v400c0 82.843 67.157 150 150 150h400c82.843 0 150-67.157 150-150V150C700 67.157 632.843 0 550 0Z" fill="url(#b)"/><path d="M550 0H150C67.157 0 0 67.157 0 150v400c0 82.843 67.157 150 150 150h400c82.843 0 150-67.157 150-150V150C700 67.157 632.843 0 550 0Z" fill="url(#c)"/><path d="M550 0H150C67.157 0 0 67.157 0 150v400c0 82.843 67.157 150 150 150h400c82.843 0 150-67.157 150-150V150C700 67.157 632.843 0 550 0Z" fill="url(#d)"/><path d="M525 212.5c0 20.71-16.79 37.5-37.5 37.5S450 233.21 450 212.5c0-20.711 16.79-37.5 37.5-37.5s37.5 16.789 37.5 37.5Z" fill="#fff"/><path fill-rule="evenodd" clip-rule="evenodd" d="M350 475c69.035 0 125-55.965 125-125s-55.965-125-125-125-125 55.965-125 125 55.965 125 125 125Zm0-50c41.423 0 75-33.577 75-75s-33.577-75-75-75-75 33.577-75 75 33.577 75 75 75Z" fill="#fff"/><path fill-rule="evenodd" clip-rule="evenodd" d="M100 340c0-84.007 0-126.012 16.349-158.098a149.996 149.996 0 0 1 65.553-65.553C213.988 100 255.993 100 340 100h20c84.007 0 126.012 0 158.097 16.349a149.99 149.99 0 0 1 65.553 65.553C600 213.988 600 255.993 600 340v20c0 84.007 0 126.012-16.35 158.097a149.985 149.985 0 0 1-65.553 65.553C486.012 600 444.007 600 360 600h-20c-84.007 0-126.012 0-158.098-16.35a149.99 149.99 0 0 1-65.553-65.553C100 486.012 100 444.007 100 360v-20Zm240-190h20c42.83 0 71.943.039 94.448 1.877 21.922 1.791 33.132 5.038 40.952 9.022a100.014 100.014 0 0 1 43.7 43.701c3.985 7.82 7.233 19.03 9.023 40.952C549.96 268.057 550 297.17 550 340v20c0 42.83-.04 71.943-1.877 94.448-1.79 21.922-5.038 33.132-9.023 40.952a100.012 100.012 0 0 1-43.7 43.7c-7.82 3.985-19.03 7.233-40.952 9.023C431.943 549.96 402.83 550 360 550h-20c-42.83 0-71.943-.04-94.448-1.877-21.922-1.79-33.132-5.038-40.952-9.023a100.014 100.014 0 0 1-43.701-43.7c-3.984-7.82-7.231-19.03-9.022-40.952C150.039 431.943 150 402.83 150 360v-20c0-42.83.039-71.943 1.877-94.448 1.791-21.922 5.038-33.132 9.022-40.952a100.017 100.017 0 0 1 43.701-43.701c7.82-3.984 19.03-7.231 40.952-9.022C268.057 150.039 297.17 150 340 150Z" fill="#fff"/></g><defs><radialGradient id="b" cx="0" cy="0" r="1" gradientUnits="userSpaceOnUse" gradientTransform="rotate(-55.376 625.245 24.288) scale(637.99)"><stop stop-color="#B13589"/><stop offset=".793" stop-color="#C62F94"/><stop offset="1" stop-color="#8A3AC8"/></radialGradient><radialGradient id="c" cx="0" cy="0" r="1" gradientUnits="userSpaceOnUse" gradientTransform="rotate(-65.136 680.02 186.373) scale(564.855)"><stop stop-color="#E0E8B7"/><stop offset=".445" stop-color="#FB8A2E"/><stop offset=".715" stop-color="#E2425C"/><stop offset="1" stop-color="#E2425C" stop-opacity="0"/></radialGradient><radialGradient id="d" cx="0" cy="0" r="1" gradientUnits="userSpaceOnUse" gradientTransform="matrix(962.50117 -137.50013 29.40984 205.8689 -37.5 25)"><stop offset=".157" stop-color="#406ADC"/><stop offset=".468" stop-color="#6A45BE"/><stop offset="1" stop-color="#6A45BE" stop-opacity="0"/></radialGradient><clipPath id="a"><path fill="#fff" d="M0 0h700v700H0z"/></clipPath></defs></svg>