<svg width="700" height="715" viewBox="0 0 700 715" fill="none" xmlns="http://www.w3.org/2000/svg">
<g clip-path="url(#clip0_136_31)">
<path fill-rule="evenodd" clip-rule="evenodd" d="M350 715C543.3 715 700 560.461 700 369.828C700 179.194 543.3 24.6552 350 24.6552C156.7 24.6552 0 179.194 0 369.828C0 431.734 16.525 489.834 45.4618 540.072L0 715L182.872 673.18C232.535 699.847 289.473 715 350 715ZM350 661.898C513.563 661.898 646.155 531.134 646.155 369.828C646.155 208.524 513.563 77.7587 350 77.7587C186.439 77.7587 53.8463 208.524 53.8463 369.828C53.8463 432.109 73.6125 489.837 107.296 537.241L80.7693 635.344L181.998 610.386C229.735 642.874 287.615 661.898 350 661.898Z" fill="#BFC8D0"/>
<path d="M650 345.172C650 508.572 515.685 641.034 350 641.034C286.805 641.034 228.173 621.764 179.817 588.857L77.2727 614.138L104.144 514.761C70.023 466.74 50 408.263 50 345.172C50 181.772 184.315 49.3103 350 49.3103C515.685 49.3103 650 181.772 650 345.172Z" fill="url(#paint0_linear_136_31)"/>
<path fill-rule="evenodd" clip-rule="evenodd" d="M350 690.345C543.3 690.345 700 535.806 700 345.172C700 154.539 543.3 0 350 0C156.7 0 0 154.539 0 345.172C0 407.079 16.525 465.179 45.4618 515.416L0 690.345L182.872 648.525C232.535 675.192 289.473 690.345 350 690.345ZM350 637.243C513.563 637.243 646.155 506.479 646.155 345.172C646.155 183.867 513.563 53.1035 350 53.1035C186.439 53.1035 53.8463 183.867 53.8463 345.172C53.8463 407.454 73.6125 465.181 107.296 512.586L80.7693 610.689L181.998 585.73C229.735 618.219 287.615 637.243 350 637.243Z" fill="white"/>
<path d="M262.5 184.911C254.18 168.427 241.413 169.886 228.518 169.886C205.47 169.886 169.531 197.113 169.531 247.784C169.531 289.311 188.086 334.768 250.61 402.769C310.95 468.396 390.235 502.344 456.055 501.188C521.875 500.034 535.418 444.173 535.418 425.309C535.418 416.949 530.155 412.777 526.533 411.643C504.103 401.026 462.732 381.245 453.32 377.53C443.907 373.814 438.992 378.842 435.938 381.576C427.403 389.596 410.483 413.24 404.688 418.559C398.895 423.877 390.257 421.184 386.662 419.175C373.435 413.941 337.572 398.208 308.987 370.878C273.632 337.081 271.557 325.451 264.897 315.101C259.57 306.819 263.48 301.74 265.43 299.518C273.047 290.852 283.565 277.469 288.282 270.82C292.997 264.168 289.255 254.072 287.007 247.784C277.345 220.738 269.157 198.097 262.5 184.911Z" fill="white"/>
</g>
<defs>
<linearGradient id="paint0_linear_136_31" x1="612.5" y1="123.276" x2="57.281" y2="648.728" gradientUnits="userSpaceOnUse">
<stop stop-color="#5BD066"/>
<stop offset="1" stop-color="#27B43E"/>
</linearGradient>
<clipPath id="clip0_136_31">
<rect width="700" height="715" fill="white"/>
</clipPath>
</defs>
</svg>
